<svg width="505" height="484" viewBox="0 0 505 484" fill="none" xmlns="http://www.w3.org/2000/svg">
<circle cx="259.887" cy="235" r="234" stroke="#A7CEFC" stroke-width="2" stroke-dasharray="15 15"/>
<circle cx="259.887" cy="235" r="136.587" stroke="#A7CEFC" stroke-width="2" stroke-dasharray="15 15"/>
<circle cx="24.8865" cy="235.356" r="24.8865" fill="#FF5758"/>
<circle cx="397.474" cy="235.356" r="24.8865" fill="#37A3FF"/>
<circle cx="260.242" cy="372.587" r="24.8865" fill="#FFBF60"/>
<circle cx="122.3" cy="235.356" r="24.8865" fill="#37A3FF"/>
<circle cx="122.3" cy="428.76" r="24.8865" fill="#37A3FF"/>
<circle cx="334.887" cy="458.887" r="24.8865" fill="#8F76F0"/>
<circle cx="425.915" cy="75.3707" r="24.8865" fill="#37A3FF"/>
<circle cx="479.955" cy="310.015" r="24.8865" fill="#00CA75"/>
<mask id="mask0_216_2710" style="mask-type:alpha" maskUnits="userSpaceOnUse" x="455" y="285" width="50" height="50">
<circle cx="479.955" cy="310.015" r="24.8865" fill="#C4C4C4"/>
</mask>
<g mask="url(#mask0_216_2710)">
</g>
<circle cx="260.953" cy="97.4131" r="24.8865" fill="#00CA75"/>
<mask id="mask1_216_2710" style="mask-type:alpha" maskUnits="userSpaceOnUse" x="236" y="72" width="50" height="51">
<circle cx="260.953" cy="97.4131" r="24.8865" fill="#C4C4C4"/>
</mask>
<g mask="url(#mask1_216_2710)">
</g>
<circle cx="124.433" cy="41.2405" r="24.8865" fill="#FFDC4D"/>
<g opacity="0.7" filter="url(#filter0_d_216_2710)">
<rect x="218" y="193" width="83" height="83" rx="41.5" fill="white"/>
</g>
<g opacity="0.7" filter="url(#filter1_d_216_2710)">
<rect x="229" y="204" width="61" height="61" rx="30.5" fill="#DEEFFF"/>
</g>
<mask id="mask2_216_2710" style="mask-type:alpha" maskUnits="userSpaceOnUse" x="229" y="204" width="61" height="61">
<path d="M259.5 204C251.411 204 243.653 207.213 237.933 212.933C232.213 218.653 229 226.411 229 234.5C229 242.589 232.213 250.347 237.933 256.067C243.653 261.787 251.411 265 259.5 265C267.589 265 275.347 261.787 281.067 256.067C286.787 250.347 290 242.589 290 234.5C290 226.411 286.787 218.653 281.067 212.933C275.347 207.213 267.589 204 259.5 204Z" fill="white"/>
</mask>
<g mask="url(#mask2_216_2710)">
<path fill-rule="evenodd" clip-rule="evenodd" d="M269.485 222.096L272.63 219.747C273.259 219.277 273.731 218.651 274.046 217.711L278.606 209.725C285.997 215.363 290.871 224.444 290.871 234.466C290.871 234.523 290.871 234.58 290.871 234.637C290.871 234.694 290.871 234.751 290.871 234.808C290.871 242.647 287.918 249.86 283.254 255.348L283.099 255.191C283.077 255.162 283.055 255.133 283.034 255.104C281.625 256.707 280.041 258.188 278.291 259.519C278.291 259.519 276.404 256.388 275.618 254.822C274.248 252.216 272.778 249.807 272.227 248.919C272.22 248.919 272.217 248.919 272.217 248.919C272.217 248.919 265.998 248.292 265.998 242.647C265.998 240.923 265.998 236.376 273.771 236.376C278.435 236.376 281.544 234.808 281.544 233.24C281.544 228.536 279.99 226.968 279.99 226.968C280.111 226.874 280.223 226.762 280.328 226.637H279.864C279.078 226.637 275.775 227.263 273.731 228.516C272.244 229.458 271.948 230.4 271.707 231.169C271.387 232.187 271.164 232.9 268.385 232.9C267.756 232.9 266.969 230.238 266.969 229.142C266.969 228.766 268.177 228.09 269.063 227.594C269.284 227.47 269.485 227.357 269.643 227.263C270.272 226.95 270.586 226.167 270.429 225.541L269.014 223.818C268.856 223.192 269.014 222.565 269.485 222.096ZM245.426 233.057C245.426 234.936 245.426 236.188 244.011 236.188C243.393 236.188 243.135 235.592 242.844 234.919C242.504 234.134 242.12 233.246 241.067 233.083C238.781 233.101 238.016 234.188 238.016 235.121V236.689C238.016 237.473 238.638 237.943 239.571 237.943C240.815 237.943 240.97 238.257 240.97 239.041C240.97 239.825 241.747 241.079 242.68 241.079H245.232L245.426 240.886H246.684H249.2C250.301 240.886 251.716 241.982 252.66 242.921C254.861 245.583 256.119 245.583 258.006 245.583V246.284C258.176 245.984 258.226 245.783 258.226 245.783C259.158 245.783 259.78 247.508 259.78 248.135C259.78 253.31 256.671 253.623 256.671 253.623C256.565 253.623 256.453 253.629 256.338 253.64C256.211 253.908 255.99 254.315 255.71 254.83C254.501 257.057 252.195 261.301 251.716 265C250.777 264.719 249.838 264.383 248.898 264.024V264.129L247.199 263.357C247.132 263.331 247.065 263.304 246.999 263.277V263.266L245.789 262.717V259.895C245.789 258.534 245.203 256.7 244.54 254.624C243.676 251.918 242.68 248.8 242.68 245.783C242.68 243.282 239.813 241.579 238.021 240.515C237.566 240.245 237.18 240.016 236.928 239.825C236.87 239.781 236.812 239.737 236.753 239.693C234.919 238.307 232.702 236.631 231.798 234.808L230.641 233.057H228.129L228.443 230.708C230.016 218.494 238.507 208.473 250.144 204.871C247.942 207.846 246.841 211.135 246.841 212.544C246.841 214.423 248.886 214.893 251.559 214.893C254.704 214.893 254.861 216.928 254.861 217.398V225.227C254.861 228.359 252.188 228.359 250.144 228.359C245.385 228.359 245.408 230.879 245.424 232.742C245.425 232.849 245.426 232.954 245.426 233.057Z" fill="#00CA75"/>
</g>
<defs>
<filter id="filter0_d_216_2710" x="179" y="158" width="161" height="161" filterUnits="userSpaceOnUse" color-interpolation-filters="sRGB">
<feFlood flood-opacity="0" result="BackgroundImageFix"/>
<feColorMatrix in="SourceAlpha" type="matrix" values="0 0 0 0 0 0 0 0 0 0 0 0 0 0 0 0 0 0 127 0" result="hardAlpha"/>
<feMorphology radius="11" operator="erode" in="SourceAlpha" result="effect1_dropShadow_216_2710"/>
<feOffset dy="4"/>
<feGaussianBlur stdDeviation="25"/>
<feComposite in2="hardAlpha" operator="out"/>
<feColorMatrix type="matrix" values="0 0 0 0 0 0 0 0 0 0 0 0 0 0 0 0 0 0 0.25 0"/>
<feBlend mode="normal" in2="BackgroundImageFix" result="effect1_dropShadow_216_2710"/>
<feBlend mode="normal" in="SourceGraphic" in2="effect1_dropShadow_216_2710" result="shape"/>
</filter>
<filter id="filter1_d_216_2710" x="190" y="169" width="139" height="139" filterUnits="userSpaceOnUse" color-interpolation-filters="sRGB">
<feFlood flood-opacity="0" result="BackgroundImageFix"/>
<feColorMatrix in="SourceAlpha" type="matrix" values="0 0 0 0 0 0 0 0 0 0 0 0 0 0 0 0 0 0 127 0" result="hardAlpha"/>
<feMorphology radius="11" operator="erode" in="SourceAlpha" result="effect1_dropShadow_216_2710"/>
<feOffset dy="4"/>
<feGaussianBlur stdDeviation="25"/>
<feComposite in2="hardAlpha" operator="out"/>
<feColorMatrix type="matrix" values="0 0 0 0 0 0 0 0 0 0 0 0 0 0 0 0 0 0 0.25 0"/>
<feBlend mode="normal" in2="BackgroundImageFix" result="effect1_dropShadow_216_2710"/>
<feBlend mode="normal" in="SourceGraphic" in2="effect1_dropShadow_216_2710" result="shape"/>
</filter>
</defs>
</svg>
